# xmcd
# 
# Track frame offsets:
#     150
#     17874
#     37602
#     54172
#     79451
#     102777
#     120247
#     134355
#     153321
#     181377
#     214373
#     237471
#     256830
#     280596
#     303627
#     326497
#     343750
# 
# Disc length: 4770
# 
# Revision: 0
# Processed by: cddbd v1.5.2PL0 Copyright (c) Steve Scherf et al.
# Submitted via: fre:ac v1.0.27
# 
DISCID=e512a011
DTITLE=Iggy and The Stooges - Telluric Chaos
DYEAR=2004
DGENRE=Rock
TTITLE0=Loose
TTITLE1=Down On The Street
TTITLE2=1969
TTITLE3=I Wanna Be Your Dog
TTITLE4=TV Eyes
TTITLE5=Dirt
TTITLE6=Real Cool Life
TTITLE7=No Fun
TTITLE8=1970
TTITLE9=Fun House
TTITLE10=Skull Ring
TTITLE11=Rock Star
TTITLE12=Electric Chair (Encore)
TTITLE13=Little Doll
TTITLE14=Idea Of Fun
TTITLE15=I Wanna Be Your Dog
TTITLE16=Not Right
EXTD=
EXTT0=
EXTT1=
EXTT2=
EXTT3=
EXTT4=
EXTT5=
EXTT6=
EXTT7=
EXTT8=
EXTT9=
EXTT10=
EXTT11=
EXTT12=
EXTT13=
EXTT14=
EXTT15=
EXTT16=
PLAYORDER=
